<mxfile host="app.diagrams.net" modified="2024-01-29T11:57:37.273Z" agent="Mozilla/5.0 (Windows NT 10.0; Win64; x64; rv:122.0) Gecko/20100101 Firefox/122.0" version="23.0.2" etag="r-Qufz9L-eDad1dAunCe" type="github">
  <diagram name="Page-1" id="R4SL1SvO-U1gGY7jiU1a">
    <mxGraphModel>
      <root>
        <mxCell id="0" />
        <mxCell id="1" parent="0" />
      </root>
    </mxGraphModel>
  </diagram>
</mxfile>
